<?xml version="1.0" encoding="iso-8859-1"?>
<!-- Generator: Adobe Illustrator 18.1.1, SVG Export Plug-In . SVG Version: 6.00 Build 0)  -->
<svg version="1.1" id="Capa_1" xmlns="http://www.w3.org/2000/svg" xmlns:xlink="http://www.w3.org/1999/xlink" x="0px" y="0px"
	 viewBox="0 0 16.574 16.574" style="enable-background:new 0 0 16.574 16.574;" xml:space="preserve">
<g>
	<g>
		<path style="fill:#030104;" d="M8.287,5.178c-1.714,0-3.108,1.395-3.108,3.107c0,1.715,1.395,3.11,3.108,3.11
			c1.715,0,3.109-1.396,3.109-3.11C11.396,6.572,10.002,5.178,8.287,5.178z M8.288,9.65c-0.753,0-1.365-0.612-1.365-1.365
			c0-0.752,0.612-1.365,1.365-1.365c0.752,0,1.365,0.613,1.365,1.365C9.653,9.038,9.04,9.65,8.288,9.65z"/>
		<path style="fill:#030104;" d="M8.288,0C3.718,0,0,3.717,0,8.285c0,4.57,3.718,8.289,8.288,8.289c4.569,0,8.286-3.719,8.286-8.289
			C16.574,3.717,12.857,0,8.288,0z M8.288,15.595c-4.03,0-7.308-3.279-7.308-7.31c0-4.028,3.278-7.306,7.308-7.306
			c4.029,0,7.307,3.277,7.307,7.306C15.595,12.315,12.317,15.595,8.288,15.595z"/>
		<path style="fill:#030104;" d="M9.03,4.765l1.764-2.81c-2.17-0.892-3.997-0.287-3.997-0.287l1.374,3.069
			C8.171,4.737,8.622,4.595,9.03,4.765z"/>
	</g>
</g>
<g>
</g>
<g>
</g>
<g>
</g>
<g>
</g>
<g>
</g>
<g>
</g>
<g>
</g>
<g>
</g>
<g>
</g>
<g>
</g>
<g>
</g>
<g>
</g>
<g>
</g>
<g>
</g>
<g>
</g>
</svg>
